<?xml version="1.0" ?><svg viewBox="0 0 512 512" xmlns="http://www.w3.org/2000/svg"><g id="green_learning"><path d="M438.5107,183.5873a10,10,0,0,0-10,10V404.413a7.6164,7.6164,0,0,1-10.0224,7.2261l-26.8242-8.9331a144.0392,144.0392,0,0,0-119.6514,13.166l-12.09,7.26a7.6019,7.6019,0,0,1-7.8414,0L239.9849,415.87A144.0421,144.0421,0,0,0,120.3354,402.706l-26.8237,8.9331a7.6164,7.6164,0,0,1-10.0224-7.2261V193.5873a10,10,0,0,0-20,0V404.413a27.6165,27.6165,0,0,0,36.3418,26.2017l26.8237-8.9331A124.0395,124.0395,0,0,1,229.69,433.0175l12.0962,7.2622a27.5631,27.5631,0,0,0,28.4331-.0019l12.0884-7.2593a124.0391,124.0391,0,0,1,103.0371-11.3369l26.8237,8.9331a27.6165,27.6165,0,0,0,36.3418-26.2017V193.5873A10,10,0,0,0,438.5107,183.5873Z"/><path d="M105.6411,384.2524a10.0007,10.0007,0,0,0,9.0078,1.376,161.858,161.858,0,0,1,134.6006,14.81l1.603.9624a10.0018,10.0018,0,0,0,10.295,0l1.6025-.9624a161.8524,161.8524,0,0,1,134.6011-14.81,10,10,0,0,0,13.16-9.4878V180.9843a10.0006,10.0006,0,0,0-6.84-9.4878,180.9381,180.9381,0,0,0-112.2085-.9175,10,10,0,1,0,6.0078,19.0762,160.9558,160.9558,0,0,1,93.041-1.2978V362.8115A181.81,181.81,0,0,0,256,381.2167a181.7834,181.7834,0,0,0-134.5107-18.4052V188.3574a160.9506,160.9506,0,0,1,93.0791,1.31,10,10,0,0,0,6.0127-19.0752,180.9532,180.9532,0,0,0-112.2515.9043,10.0006,10.0006,0,0,0-6.84,9.4878V376.1406A10.0014,10.0014,0,0,0,105.6411,384.2524Z"/><path d="M221.8818,155.8725a10,10,0,1,0,7.6114-18.4951A69.3762,69.3762,0,0,1,188.0044,88.15a51.7882,51.7882,0,0,1,57.9644,51.4405c0,.2089.0186.413.0312.6187V333.45a10,10,0,0,0,20,0V140.1911c.0126-.2058.0312-.41.0312-.6189A51.7882,51.7882,0,0,1,323.9956,88.15a69.3762,69.3762,0,0,1-41.4888,49.2271,10,10,0,1,0,7.6114,18.4951,89.3153,89.3153,0,0,0,55.1557-74.6533,10.0006,10.0006,0,0,0-7.1313-10.503,71.7377,71.7377,0,0,0-82.141,32.4236,71.7421,71.7421,0,0,0-82.1442-32.4236,10.0006,10.0006,0,0,0-7.1313,10.503A89.3153,89.3153,0,0,0,221.8818,155.8725Z"/></g></svg>