<svg viewBox="0 0 64 64" xml:space="preserve" xmlns="http://www.w3.org/2000/svg" enable-background="new 0 0 64 64"><path d="M19.4 16.2c-.4 0-.8.3-.9.7l-1.3 4.8-1.3-4.8c-.1-.4-.5-.8-1-.7-.5 0-.9.3-1 .8l-1 4.7-1.4-4.8c-.1-.4-.5-.7-.9-.7s-.8.2-1 .5c-.2.4-4.4 8.8.7 15.5.7.8 1.2 1.3 1.7 1.7V46.7c0 .1 0 1.5.9 2.4.4.4 1 .8 2.1.8 2.2 0 3-2.1 3-3.5V34.3c.6-.4 1.1-1.1 1.8-2.2 4.3-6.7.6-15 .5-15.3-.1-.4-.5-.7-.9-.6zM18.2 31c-1.3 2-1.8 2-2.8 2h-.3c-1 0-1.4 0-3.2-2-2.7-3.6-2.2-7.9-1.4-10.6l1.7 5.7c.1.4.6.8 1 .7.5 0 .8-.3.9-.8l1-4.5 1.2 4.4c.1.4.5.7 1 .7s.8-.3 1-.7l1.4-5.1c.4 2.7.7 6.8-1.5 10.2zM32.2 16.2c-.3-.1-.6 0-.9.1-6.2 4.5-5.5 16-5.5 16.5 0 .4.3.8.7.9l2.6.9v12.3c0 .1 0 1.5.9 2.4.4.4 1 .8 2.1.8 2.2 0 3-2 3-3.3V34.5l2.6-.9c.4-.1.7-.6.7-1.1-1.5-14.4-5.7-16.2-6.2-16.3zm.9 16.8L32 26.4 30.9 33l-3.1-1c0-2.3.1-10.1 4.1-13.6.9.9 3.3 3.9 4.4 13.6l-3.2 1zM55.8 19.6c-.3-.5-.9-.6-1.4-.4l-3.3 1.9c-.2.1-.3.3-.4.4l-1.4 3.1V17c0-.6-.4-1-1-1s-1 .4-1 1v7.5l-1.4-3.1c-.1-.2-.2-.3-.4-.4l-3.3-1.9c-.5-.3-1.1-.1-1.4.4-.3.5-.1 1.1.4 1.4l3 1.8 3.1 6.7v3.8h-2.7c-.6 0-1 .4-1 1s.4 1 1 1h.6v11.6c0 .1 0 1.5.9 2.4.4.4 1 .8 2.1.8 2.2 0 3-2 3-3.3V35.2h.6c.6 0 1-.4 1-1s-.4-1-1-1h-2.5v-3.7l3.1-6.7 3-1.8c.5-.3.7-.9.4-1.4z" fill="#ffffff" class="fill-282828"></path></svg>