<?xml version="1.0" ?><!DOCTYPE svg  PUBLIC '-//W3C//DTD SVG 1.1//EN'  'http://www.w3.org/Graphics/SVG/1.1/DTD/svg11.dtd'><svg id="Layer_1" style="enable-background:new 0 0 64 64;" version="1.1" viewBox="0 0 64 64" xml:space="preserve" xmlns="http://www.w3.org/2000/svg" xmlns:xlink="http://www.w3.org/1999/xlink"><style type="text/css">
	.st0{fill:#282828;}
</style><g><g><path class="st0" d="M19.4,16.2c-0.4,0-0.8,0.3-0.9,0.7l-1.3,4.8l-1.3-4.8c-0.1-0.4-0.5-0.8-1-0.7c-0.5,0-0.9,0.3-1,0.8l-1,4.7     l-1.4-4.8c-0.1-0.4-0.5-0.7-0.9-0.7c-0.4,0-0.8,0.2-1,0.5c-0.2,0.4-4.4,8.8,0.7,15.5c0.7,0.8,1.2,1.3,1.7,1.7c0,0,0,0,0,0.1     l0,12.7c0,0.1,0,1.5,0.9,2.4c0.4,0.4,1,0.8,2.1,0.8c2.2,0,3-2.1,3-3.5V34.3c0.6-0.4,1.1-1.1,1.8-2.2c4.3-6.7,0.6-15,0.5-15.3     C20.2,16.4,19.8,16.1,19.4,16.2z M18.2,31c-1.3,2-1.8,2-2.8,2l-0.3,0c-1,0-1.4,0-3.2-2c-2.7-3.6-2.2-7.9-1.4-10.6l1.7,5.7     c0.1,0.4,0.6,0.8,1,0.7c0.5,0,0.8-0.3,0.9-0.8l1-4.5l1.2,4.4c0.1,0.4,0.5,0.7,1,0.7h0c0.5,0,0.8-0.3,1-0.7l1.4-5.1     C20.1,23.5,20.4,27.6,18.2,31z"/><path class="st0" d="M32.2,16.2c-0.3-0.1-0.6,0-0.9,0.1c-6.2,4.5-5.5,16-5.5,16.5c0,0.4,0.3,0.8,0.7,0.9l2.6,0.9l0,12.3     c0,0.1,0,1.5,0.9,2.4c0.4,0.4,1,0.8,2.1,0.8c2.2,0,3-2,3-3.3V34.5l2.6-0.9c0.4-0.1,0.7-0.6,0.7-1.1     C36.9,18.1,32.7,16.3,32.2,16.2z M33.1,33L32,26.4L30.9,33L27.8,32c0-2.3,0.1-10.1,4.1-13.6c0.9,0.9,3.3,3.9,4.4,13.6L33.1,33z"/><path class="st0" d="M55.8,19.6c-0.3-0.5-0.9-0.6-1.4-0.4l-3.3,1.9c-0.2,0.1-0.3,0.3-0.4,0.4l-1.4,3.1v-7.6c0-0.6-0.4-1-1-1     s-1,0.4-1,1v7.5l-1.4-3.1c-0.1-0.2-0.2-0.3-0.4-0.4l-3.3-1.9c-0.5-0.3-1.1-0.1-1.4,0.4c-0.3,0.5-0.1,1.1,0.4,1.4l3,1.8l3.1,6.7     v3.8h-2.7c-0.6,0-1,0.4-1,1s0.4,1,1,1h0.6l0,11.6c0,0.1,0,1.5,0.9,2.4c0.4,0.4,1,0.8,2.1,0.8c2.2,0,3-2,3-3.3V35.2h0.6     c0.6,0,1-0.4,1-1s-0.4-1-1-1h-2.5v-3.7l3.1-6.7l3-1.8C55.9,20.7,56.1,20.1,55.8,19.6z"/></g></g></svg>