<?xml version="1.0" ?><svg data-name="Layer 1" id="Layer_1" viewBox="0 0 64 64" xmlns="http://www.w3.org/2000/svg"><title/><path d="M7,48a1,1,0,0,0,1-1V40.407c2.609-2.586,4-5.482,4-8.407,0-3.044-1.492-6.061-4.312-8.726a1.012,1.012,0,0,0-1.376,0C3.492,25.939,2,28.956,2,32c0,2.925,1.391,5.821,4,8.407V47A1,1,0,0,0,7,48ZM4,32a9.749,9.749,0,0,1,3-6.586A9.749,9.749,0,0,1,10,32a9.014,9.014,0,0,1-2,5.386V31a1,1,0,0,0-2,0v6.386A9.014,9.014,0,0,1,4,32Z"/><path d="M25,15a7,7,0,1,0,7-7A7.008,7.008,0,0,0,25,15Zm7-5a5,5,0,1,1-5,5A5.006,5.006,0,0,1,32,10Z"/><rect height="4" rx="1" width="2" x="31" y="2"/><rect height="4" rx="1" width="2" x="31" y="24"/><rect height="2" rx="1" width="4" x="41" y="14"/><rect height="2" rx="1" width="4" x="19" y="14"/><path d="M39.778,5.808,38.364,7.222a1,1,0,0,0,1.414,1.414l1.415-1.414a1,1,0,0,0-1.415-1.414Z"/><path d="M24.222,24.192l1.414-1.414a1,1,0,1,0-1.414-1.414l-1.415,1.414a1,1,0,0,0,1.415,1.414Z"/><path d="M41.192,24.192a1,1,0,0,0,0-1.414l-1.415-1.414a1,1,0,1,0-1.414,1.414l1.414,1.414A1,1,0,0,0,41.192,24.192Z"/><path d="M24.222,5.808a1,1,0,0,0-1.415,1.414l1.415,1.414a1,1,0,1,0,1.414-1.414Z"/><path d="M41,55a1,1,0,0,0,1-1V50a1,1,0,0,0-1-1H39.416l-.051-.123,1.12-1.12a1,1,0,0,0,0-1.414l-2.828-2.828a1,1,0,0,0-1.414,0l-1.12,1.12L35,44.584V43a1,1,0,0,0-1-1H30a1,1,0,0,0-1,1v1.584l-.123.051-1.12-1.12a1.029,1.029,0,0,0-1.414,0l-2.828,2.828a1,1,0,0,0,0,1.414l1.12,1.12L24.584,49H23a1,1,0,0,0-1,1v4a1,1,0,0,0,1,1h1.584l.051.123-1.12,1.12a1,1,0,0,0,0,1.414l2.828,2.828a1,1,0,0,0,1.414,0l1.12-1.12.123.051V61a1,1,0,0,0,1,1h4a1,1,0,0,0,1-1V59.416l.123-.051,1.12,1.12a1.029,1.029,0,0,0,1.414,0l2.828-2.828a1,1,0,0,0,0-1.414l-1.12-1.12L39.416,55Zm-2.294-2a1,1,0,0,0-.958.714,5.967,5.967,0,0,1-.469,1.139,1,1,0,0,0,.172,1.184l.913.913L36.95,58.364l-.913-.913a1,1,0,0,0-1.183-.172,5.987,5.987,0,0,1-1.139.469,1,1,0,0,0-.715.958V60H31V58.706a1,1,0,0,0-.715-.958,5.987,5.987,0,0,1-1.139-.469,1,1,0,0,0-1.183.172l-.913.913L25.636,56.95l.913-.913a1,1,0,0,0,.172-1.184,5.967,5.967,0,0,1-.469-1.139A1,1,0,0,0,25.294,53H24V51h1.294a1,1,0,0,0,.958-.714,5.967,5.967,0,0,1,.469-1.139,1,1,0,0,0-.172-1.184l-.913-.913,1.414-1.414.913.913a1,1,0,0,0,1.183.172,5.987,5.987,0,0,1,1.139-.469A1,1,0,0,0,31,45.294V44h2v1.294a1,1,0,0,0,.715.958,5.987,5.987,0,0,1,1.139.469,1,1,0,0,0,1.183-.172l.913-.913,1.414,1.414-.913.913a1,1,0,0,0-.172,1.184,5.967,5.967,0,0,1,.469,1.139,1,1,0,0,0,.958.714H40v2Z"/><path d="M32,48a4,4,0,1,0,4,4A4,4,0,0,0,32,48Zm0,6a2,2,0,1,1,2-2A2,2,0,0,1,32,54Z"/><path d="M59,24a4,4,0,1,0-4,4A4,4,0,0,0,59,24Zm-6,0a2,2,0,1,1,2,2A2,2,0,0,1,53,24Z"/><path d="M59,29H51a3,3,0,0,0-3,3v6a1,1,0,0,0,1,1h1v9a1,1,0,0,0,1,1h8a1,1,0,0,0,1-1V39h1a1,1,0,0,0,1-1V32A3,3,0,0,0,59,29Zm1,8H59a1,1,0,0,0-1,1v9H52V38a1,1,0,0,0-1-1H50V32a1,1,0,0,1,1-1h8a1,1,0,0,1,1,1Z"/></svg>