<svg viewBox="0 0 24 24" xml:space="preserve" xmlns="http://www.w3.org/2000/svg"><g fill="none" stroke="#080808" stroke-linecap="round" stroke-linejoin="round" stroke-miterlimit="10" class="stroke-303c42"><path d="m11.996 7.5.004 15M12 22.5c2.998-.018 9.5-2 10.5-11-3 0-10.5 2.5-10.5 10M12 22.5c-2.998-.018-9.5-2-10.5-11 3 0 10.5 2.5 10.5 10M12 7.5c0-4.5-5.5-4-5.5-4 .467.701.716 2.713.849 4.657a4.658 4.658 0 0 0 4.647 4.343h.008c2.45 0 4.48-1.898 4.647-4.343.133-1.944.382-3.956.849-4.657 0 0-5.5-.5-5.5 4z"></path><path d="M9.287 3.825 12 1.5l2.794 2.299"></path></g></svg>